<?xml version="1.0" encoding="utf-8"?><svg xmlns="http://www.w3.org/2000/svg" xmlns:xlink="http://www.w3.org/1999/xlink" width="200px" height="200px" viewBox="0 0 100 100" preserveAspectRatio="xMidYMid" data-darkreader-inline-bgcolor="" data-darkreader-inline-bgimage="" style="display:block;background-color:rgb(24, 26, 27);animation-play-state:paused" ><g style="animation-play-state:paused" ><circle cx="54.79999923706055" cy="50" r="4" fill="#e15b64" data-darkreader-inline-fill="" fill-opacity="1" style="animation-play-state:paused" ></circle>

  
<circle cx="75.19999694824219" cy="50" r="4" fill="#e15b64" data-darkreader-inline-fill="" fill-opacity="1" style="animation-play-state:paused" ></circle>

  
<circle cx="95" cy="50" r="4" fill="#e15b64" data-darkreader-inline-fill="" fill-opacity="0" style="animation-play-state:paused" ></circle></g>
<g transform="translate(-15 0)" style="animation-play-state:paused" ><path d="M50 50L20 50A30 30 0 0 0 80 50Z" fill="#f8b26a" transform="rotate(90 50 50)" data-darkreader-inline-fill="" style="animation-play-state:paused" ></path>

  
<path d="M50 50L20 50A30 30 0 0 0 80 50Z" fill="#f8b26a" data-darkreader-inline-fill="" transform="matrix(1,0,0,1,0,0)" style="animation-play-state:paused" ></path>

  
<path d="M50 50L20 50A30 30 0 0 1 80 50Z" fill="#f8b26a" data-darkreader-inline-fill="" transform="matrix(1,0,0,1,0,0)" style="animation-play-state:paused" ></path></g><!-- generated by https://loading.io/ --></svg>